<!-- Generated by IcoMoon.io -->
<svg version="1.1" xmlns="http://www.w3.org/2000/svg" width="28" height="32" viewBox="0 0 28 32">
<title>Artboard-43_3x-8_1</title>
<path d="M18.352 0.24c-2.361 0.618-4.15 2.785-4.307 5.21-0.101 1.476 0.231 2.591 1.162 3.956 0.295 0.443 0.627 0.959 0.729 1.162 0.314 0.618 0.572 1.595 0.636 2.407 0.074 0.959 0.314 1.356 1.051 1.724 0.341 0.166 0.424 0.24 0.277 0.24-0.249 0-0.563 0.157-0.719 0.36-0.175 0.231-0.138 0.784 0.065 1.042 0.175 0.231 0.175 0.24 0 0.397-0.267 0.24-0.249 0.876 0.028 1.134 0.111 0.101 0.323 0.221 0.461 0.258 0.184 0.046 0.231 0.092 0.166 0.157-0.055 0.055-0.101 0.258-0.101 0.443 0 0.812 0.212 0.913 2.029 0.913s2.029-0.101 2.029-0.913c0-0.184-0.046-0.387-0.101-0.443-0.074-0.074-0.028-0.12 0.184-0.166 0.581-0.129 0.848-0.876 0.48-1.346-0.175-0.221-0.175-0.231 0-0.443 0.387-0.48 0.12-1.245-0.48-1.365l-0.277-0.055 0.35-0.157c0.47-0.212 0.941-0.71 0.987-1.051 0.028-0.157 0.074-0.572 0.111-0.931 0.101-1.144 0.627-2.471 1.328-3.366 0.397-0.516 0.71-1.107 0.941-1.798 0.175-0.535 0.212-0.839 0.212-1.752-0.009-0.959-0.037-1.199-0.258-1.826-0.664-1.891-2.195-3.32-4.076-3.799-0.682-0.175-2.222-0.175-2.905 0.009zM21.404 1.236c1.974 0.682 3.311 2.545 3.311 4.62 0 1.125-0.314 2.010-1.134 3.2-0.802 1.144-1.208 2.222-1.365 3.578-0.074 0.636-0.157 0.931-0.286 1.070-0.618 0.682-3.209 0.701-4.141 0.028-0.221-0.157-0.258-0.258-0.314-0.802-0.138-1.522-0.544-2.628-1.503-4.030-1.217-1.798-1.374-3.606-0.461-5.33 1.144-2.13 3.624-3.117 5.893-2.333z"></path>
<path d="M17.263 7.71c-0.111 0.074-0.203 0.203-0.203 0.277s0.184 0.498 0.406 0.941c0.221 0.443 0.526 1.153 0.682 1.586 0.249 0.719 0.341 1.134 0.553 2.628 0.065 0.415 0.092 0.461 0.323 0.489 0.48 0.055 0.553-0.111 0.498-1.042-0.055-0.876-0.332-1.983-0.747-3.006-0.129-0.332-0.24-0.627-0.24-0.655s0.157-0.018 0.35 0.028c0.424 0.101 1.411 0.101 1.937 0 0.212-0.046 0.387-0.074 0.387-0.065 0 0-0.12 0.304-0.267 0.673-0.378 0.913-0.627 1.863-0.756 2.831-0.129 1.014-0.046 1.282 0.397 1.236 0.157-0.018 0.314-0.092 0.36-0.166 0.037-0.074 0.111-0.516 0.157-0.978 0.111-0.987 0.572-2.444 1.116-3.532 0.636-1.263 0.48-1.549-0.646-1.134-0.599 0.221-0.812 0.249-1.743 0.24-0.931 0-1.144-0.028-1.697-0.249-0.341-0.138-0.636-0.249-0.646-0.249s-0.111 0.065-0.221 0.148z"></path>
<path d="M7.617 18.868c-0.996 0.24-2.001 0.812-4.205 2.398-0.581 0.415-1.282 0.867-1.549 1.005-0.489 0.24-0.581 0.249-1.226 0.092-0.166-0.046-0.286-0.009-0.387 0.092-0.138 0.138-0.157 0.461-0.157 2.803 0 3.080-0.037 2.96 0.867 2.96 0.793 0 10.956 2.573 13.381 3.384 0.83 0.277 1.144 0.341 1.752 0.341 0.406 0 0.904-0.055 1.097-0.12 0.332-0.12 10.19-7.414 10.458-7.746 0.267-0.341 0.406-0.719 0.452-1.217 0.065-0.655-0.184-1.217-0.719-1.678-0.59-0.507-1.54-0.673-2.305-0.397-0.267 0.092-3.643 2.222-7.184 4.537l-0.323 0.212-6.824-1.808-0.166-0.314c-0.249-0.47-0.166-1.070 0.203-1.392l0.295-0.258 2.186 0.018c2.047 0.028 2.204 0.018 2.499-0.157 0.941-0.553 0.922-2.305-0.028-2.757-0.277-0.129-0.793-0.148-3.947-0.138-2.803 0-3.744 0.037-4.168 0.138zM15.373 19.689c0.166 0.055 0.24 0.581 0.12 0.876-0.157 0.378-0.415 0.406-2.601 0.323l-1.835-0.065-0.507 0.249c-0.378 0.184-0.563 0.35-0.747 0.673-0.461 0.784-0.295 2.066 0.332 2.637 0.175 0.157 7.092 2.075 7.507 2.084 0.092 0 1.669-0.968 3.504-2.158 1.835-1.18 3.541-2.278 3.79-2.444 1.079-0.682 2.388-0.083 2.241 1.024-0.028 0.194-0.101 0.424-0.175 0.507-0.065 0.083-2.342 1.817-5.054 3.855-3.311 2.481-5.044 3.726-5.247 3.763-0.563 0.111-1.061 0.065-1.715-0.166-1.559-0.563-13.104-3.55-13.685-3.55h-0.286v-3.846l0.378-0.055c0.535-0.074 1.374-0.507 2.324-1.217 1.383-1.033 2.435-1.706 3.274-2.103 0.738-0.35 0.885-0.378 1.817-0.443 0.968-0.055 6.335-0.009 6.566 0.055z"></path>
</svg>
